<svg width="24" height="24" viewBox="0 0 24 24" fill="none" xmlns="http://www.w3.org/2000/svg">
<g clip-path="url(#clip0_298_2954)">
<path d="M12.7127 2.29571C12.6197 2.20201 12.5092 2.12764 12.3874 2.07688C12.2655 2.02613 12.1349 2 12.0029 2C11.8709 2 11.7402 2.02613 11.6184 2.07688C11.4966 2.12764 11.386 2.20201 11.2931 2.29571L2.29571 11.2931C2.20201 11.386 2.12764 11.4966 2.07688 11.6184C2.02613 11.7403 2 11.8709 2 12.0029C2 12.1349 2.02613 12.2655 2.07688 12.3874C2.12764 12.5092 2.20201 12.6198 2.29571 12.7127C2.38913 12.8053 2.49991 12.8787 2.62171 12.9284C2.74351 12.9782 2.87394 13.0034 3.00551 13.0026H4.00522V20.0006C4.00522 20.5309 4.21587 21.0394 4.59083 21.4144C4.9658 21.7893 5.47435 22 6.00463 22H18.0011C18.5314 22 19.04 21.7893 19.4149 21.4144C19.7899 21.0394 20.0006 20.5309 20.0006 20.0006V13.0026H21.0003C21.2654 13.0026 21.5197 12.8973 21.7072 12.7098C21.8947 12.5223 22 12.268 22 12.0029C22.0007 11.8713 21.9755 11.7409 21.9258 11.6191C21.876 11.4973 21.8027 11.3865 21.7101 11.2931L12.7127 2.29571ZM6.00463 20.0006V10.4134L12.0029 4.4151L18.0011 10.4134V20.0006H6.00463Z" fill="black"/>
</g>
<defs>
<clipPath id="clip0_298_2954">
<rect width="24" height="24" fill="white"/>
</clipPath>
</defs>
</svg>
