<svg width="469" height="509" viewBox="0 0 469 509" fill="none" xmlns="http://www.w3.org/2000/svg">
<circle cx="318.354" cy="156.511" r="106.909" transform="rotate(128.391 318.354 156.511)" fill="#660099" fill-opacity="0.15"/>
<circle cx="249.535" cy="344.472" r="44.1212" transform="rotate(128.391 249.535 344.472)" fill="#660099" fill-opacity="0.15"/>
<circle cx="151.11" cy="266.486" r="44.1212" transform="rotate(128.391 151.11 266.486)" fill="#660099" fill-opacity="0.15"/>
<circle cx="137.091" cy="385.284" r="28.8485" transform="rotate(128.391 137.091 385.284)" fill="#660099" fill-opacity="0.15"/>
<circle cx="149.695" cy="473.213" r="11.8788" transform="rotate(128.391 149.695 473.213)" fill="#660099" fill-opacity="0.15"/>
<circle cx="123.094" cy="452.136" r="11.8788" transform="rotate(128.391 123.094 452.136)" fill="#660099" fill-opacity="0.15"/>
<circle cx="96.4922" cy="431.059" r="11.8788" transform="rotate(128.391 96.4922 431.059)" fill="#660099" fill-opacity="0.15"/>
<circle cx="69.8906" cy="409.981" r="11.8788" transform="rotate(128.391 69.8906 409.981)" fill="#660099" fill-opacity="0.15"/>
<circle cx="43.2891" cy="388.904" r="11.8788" transform="rotate(128.391 43.2891 388.904)" fill="#660099" fill-opacity="0.15"/>
<circle cx="16.6875" cy="367.827" r="11.8788" transform="rotate(128.391 16.6875 367.827)" fill="#660099" fill-opacity="0.15"/>
</svg>
