<svg width="512" height="462" viewBox="0 0 512 462" fill="none" xmlns="http://www.w3.org/2000/svg">
<circle cx="155.659" cy="149.583" r="106.909" transform="rotate(36.6338 155.659 149.583)" fill="#660099" fill-opacity="0.15"/>
<circle cx="345.641" cy="212.607" r="44.1212" transform="rotate(36.6338 345.641 212.607)" fill="#660099" fill-opacity="0.15"/>
<circle cx="270.711" cy="313.377" r="44.1212" transform="rotate(36.6338 270.711 313.377)" fill="#660099" fill-opacity="0.15"/>
<circle cx="389.881" cy="323.747" r="28.8485" transform="rotate(36.6338 389.881 323.747)" fill="#660099" fill-opacity="0.15"/>
<circle cx="477.383" cy="308.452" r="11.8788" transform="rotate(36.6338 477.383 308.452)" fill="#660099" fill-opacity="0.15"/>
<circle cx="457.131" cy="335.688" r="11.8788" transform="rotate(36.6338 457.131 335.688)" fill="#660099" fill-opacity="0.15"/>
<circle cx="436.88" cy="362.923" r="11.8788" transform="rotate(36.6338 436.88 362.923)" fill="#660099" fill-opacity="0.15"/>
<circle cx="416.628" cy="390.158" r="11.8788" transform="rotate(36.6338 416.628 390.158)" fill="#660099" fill-opacity="0.15"/>
<circle cx="396.376" cy="417.394" r="11.8788" transform="rotate(36.6338 396.376 417.394)" fill="#660099" fill-opacity="0.15"/>
<circle cx="376.125" cy="444.629" r="11.8788" transform="rotate(36.6338 376.125 444.629)" fill="#660099" fill-opacity="0.15"/>
</svg>
