<svg width="24" height="22" viewBox="0 0 24 22" fill="none" xmlns="http://www.w3.org/2000/svg">
<path d="M13 15.1189C13 16.8917 14.573 18.3337 16.507 18.3337C18.441 18.3337 20.014 16.8917 20.014 15.1189C20.014 14.9567 19.987 14.8008 19.961 14.645H20V5.50033H22V3.66699H19C18.7348 3.66699 18.4804 3.76357 18.2929 3.93548C18.1054 4.10739 18 4.34054 18 4.58366V12.2222C17.5344 12.0157 17.0243 11.9073 16.507 11.9051C15.5773 11.9058 14.6859 12.2446 14.0284 12.8471C13.3709 13.4497 13.0011 14.2667 13 15.1189ZM2 4.58366H16V6.41699H2V4.58366Z" fill="white"/>
<path d="M2.5 8.75H15.5V9.58333H2.5V8.75ZM2.5 12.4167H10.5V13.25H2.5V12.4167ZM2.5 16.0833H10.5V16.9167H2.5V16.0833Z" fill="white" stroke="white"/>
</svg>
